<svg xmlns="http://www.w3.org/2000/svg" version="1.1" xmlns:xlink="http://www.w3.org/1999/xlink" xmlns:svgjs="http://svgjs.com/svgjs" width="1000" height="1000"><rect width="1000" height="1000" rx="100" ry="100" fill="#555555"></rect><g transform="matrix(8,0,0,8,100.31462669372559,106.65000534057617)"><svg xmlns="http://www.w3.org/2000/svg" version="1.1" xmlns:xlink="http://www.w3.org/1999/xlink" xmlns:svgjs="http://svgjs.com/svgjs" width="100" height="100"><svg version="1.1" id="flask" xmlns="http://www.w3.org/2000/svg" xmlns:xlink="http://www.w3.org/1999/xlink" x="0px" y="0px" viewBox="0 0 100 100" style="enable-background:new 0 0 100 100;" xml:space="preserve">
<style type="text/css">
	.st0{fill:#FFFFFF;}
</style>
<g>
	<path class="st0" d="M75.1,83.5L63.7,65.9c0,0,0-0.1-0.1-0.1l-4.8-7.4c-1.2-1.8-1.8-3.9-1.8-6V33.9h1.3c2.1,0,3.8-1.7,3.8-3.8
		s-1.7-3.8-3.8-3.8H41.6c-2.1,0-3.8,1.7-3.8,3.8s1.7,3.8,3.8,3.8h1.3v18.5c0,2.1-0.6,4.2-1.8,6l-4.8,7.4c0,0,0,0.1-0.1,0.1
		L24.9,83.5c-1.4,2.1-1.5,4.8-0.3,7c1.2,2.2,3.5,3.6,6,3.6h38.7c2.5,0,4.8-1.4,6-3.6C76.5,88.3,76.4,85.6,75.1,83.5z M73.8,89.6
		c-0.9,1.6-2.6,2.7-4.5,2.7H30.6c-1.9,0-3.6-1-4.5-2.7c-0.9-1.6-0.8-3.6,0.2-5.2l11.1-17.1c0.1,0,0.2,0.1,0.4,0.1
		c0.4,0.2,0.8,0.4,1.7,0.4c0.3,0,0.5,0,0.8-0.1c0.5-0.1,0.8-0.5,0.7-1c-0.1-0.5-0.5-0.8-1-0.7c-0.1,0-0.3,0-0.4,0
		c-0.5,0-0.7-0.1-1-0.2c0,0-0.1,0-0.1,0l4.2-6.5c0.3-0.5,0.6-1.1,0.9-1.6h4.8c0.5,0,0.9-0.4,0.9-0.9c0-0.5-0.4-0.9-0.9-0.9h-4.1
		c0.3-1,0.5-2.1,0.5-3.2h3.6c0.5,0,0.9-0.4,0.9-0.9c0-0.5-0.4-0.9-0.9-0.9h-3.6v-3.2h3.6c0.5,0,0.9-0.4,0.9-0.9s-0.4-0.9-0.9-0.9
		h-3.6V43h3.6c0.5,0,0.9-0.4,0.9-0.9s-0.4-0.9-0.9-0.9h-3.6v-3.2h3.6c0.5,0,0.9-0.4,0.9-0.9c0-0.5-0.4-0.9-0.9-0.9h-3.6v-3.3
		c0-0.5-0.4-0.9-0.9-0.9h-2.2c-1.2,0-2.1-0.9-2.1-2.1s0.9-2.1,2.1-2.1h16.9c1.2,0,2.1,0.9,2.1,2.1s-0.9,2.1-2.1,2.1h-2.2
		c0,0,0,0,0,0h-8c-0.5,0-0.9,0.4-0.9,0.9c0,0.5,0.4,0.9,0.9,0.9h7.1v18.5c0,2.5,0.7,4.9,2,6.9l4.2,6.5c0,0-0.1,0-0.1,0
		c-0.3,0.1-0.5,0.2-1,0.2s-0.7-0.1-1-0.2c-0.4-0.2-0.8-0.4-1.7-0.4c-0.8,0-1.3,0.2-1.7,0.4c-0.3,0.1-0.5,0.2-1,0.2
		c-0.5,0-0.7-0.1-1-0.2c-0.4-0.2-0.8-0.4-1.7-0.4c-0.3,0-0.6,0-0.8,0.1c-0.5,0.1-0.8,0.6-0.7,1c0.1,0.5,0.6,0.8,1,0.7
		c0.1,0,0.3,0,0.5,0c0.5,0,0.7,0.1,1,0.2c0.4,0.2,0.8,0.4,1.7,0.4c0.8,0,1.3-0.2,1.7-0.4c0.3-0.1,0.5-0.2,1-0.2s0.7,0.1,1,0.2
		c0.4,0.2,0.8,0.4,1.7,0.4s1.3-0.2,1.7-0.4c0.1-0.1,0.2-0.1,0.4-0.1l11.1,17.1C74.6,86,74.7,88,73.8,89.6z"></path>
	<path class="st0" d="M48.3,60.9h-4.5c-0.5,0-0.9,0.4-0.9,0.9s0.4,0.9,0.9,0.9h4.5c0.5,0,0.9-0.4,0.9-0.9
		C49.1,61.3,48.7,60.9,48.3,60.9z"></path>
	<path class="st0" d="M48.3,65.8h-4.5c-0.5,0-0.9,0.4-0.9,0.9c0,0.5,0.4,0.9,0.9,0.9h4.5c0.5,0,0.9-0.4,0.9-0.9
		C49.1,66.2,48.7,65.8,48.3,65.8z"></path>
	<path class="st0" d="M48.3,70.7h-4.5c-0.5,0-0.9,0.4-0.9,0.9s0.4,0.9,0.9,0.9h4.5c0.5,0,0.9-0.4,0.9-0.9S48.7,70.7,48.3,70.7z"></path>
	<path class="st0" d="M48.3,75.6h-4.5c-0.5,0-0.9,0.4-0.9,0.9s0.4,0.9,0.9,0.9h4.5c0.5,0,0.9-0.4,0.9-0.9
		C49.1,76,48.7,75.6,48.3,75.6z"></path>
	<path class="st0" d="M48.3,80.5h-4.5c-0.5,0-0.9,0.4-0.9,0.9s0.4,0.9,0.9,0.9h4.5c0.5,0,0.9-0.4,0.9-0.9
		C49.1,80.9,48.7,80.5,48.3,80.5z"></path>
	<path class="st0" d="M48.3,85.4h-4.5c-0.5,0-0.9,0.4-0.9,0.9c0,0.5,0.4,0.9,0.9,0.9h4.5c0.5,0,0.9-0.4,0.9-0.9
		C49.1,85.8,48.7,85.4,48.3,85.4z"></path>
	<path class="st0" d="M46.1,23.3c1.9,0,3.4-1.5,3.4-3.4c0-1.9-1.5-3.4-3.4-3.4c-1.9,0-3.4,1.5-3.4,3.4
		C42.8,21.7,44.3,23.3,46.1,23.3z M46.1,18.2c0.9,0,1.7,0.7,1.7,1.6s-0.7,1.6-1.7,1.6c-0.9,0-1.6-0.7-1.6-1.6S45.2,18.2,46.1,18.2z"></path>
	<path class="st0" d="M52.9,17.2c2.4,0,4.3-1.9,4.3-4.3s-1.9-4.3-4.3-4.3c-2.4,0-4.3,1.9-4.3,4.3S50.6,17.2,52.9,17.2z M52.9,10.3
		c1.4,0,2.6,1.2,2.6,2.6s-1.2,2.6-2.6,2.6s-2.6-1.2-2.6-2.6S51.5,10.3,52.9,10.3z"></path>
	<path class="st0" d="M47,9.3c1.5,0,2.7-1.2,2.7-2.7S48.5,4,47,4c-1.5,0-2.7,1.2-2.7,2.7S45.5,9.3,47,9.3z M47,5.7
		c0.5,0,0.9,0.4,0.9,0.9S47.5,7.6,47,7.6c-0.5,0-0.9-0.4-0.9-0.9S46.5,5.7,47,5.7z"></path>
</g>
</svg></svg></g></svg>