<?xml version="1.0" standalone="no"?>
<!DOCTYPE svg PUBLIC "-//W3C//DTD SVG 20010904//EN"
 "http://www.w3.org/TR/2001/REC-SVG-20010904/DTD/svg10.dtd">
<svg version="1.0" xmlns="http://www.w3.org/2000/svg"
 width="700.000000pt" height="700.000000pt" viewBox="0 0 700.000000 700.000000"
 preserveAspectRatio="xMidYMid meet">
<metadata>
Created by potrace 1.14, written by Peter Selinger 2001-2017
</metadata>
<g transform="translate(0.000000,700.000000) scale(0.100000,-0.100000)"
fill="#000000" stroke="none">
<path d="M3234 6712 c-145 -49 -178 -246 -55 -327 138 -92 324 21 298 181 -8
46 -47 104 -87 127 -33 20 -122 31 -156 19z m98 -129 c38 -34 8 -113 -44 -113
-53 0 -77 71 -38 110 24 24 57 26 82 3z"/>
<path d="M3616 6384 c-106 -33 -169 -98 -200 -205 -56 -191 88 -380 290 -381
114 -1 213 61 265 167 115 234 -106 496 -355 419z m171 -128 c55 -28 105 -115
97 -168 -11 -77 -71 -151 -132 -164 -53 -11 -54 -11 -92 -1 -106 27 -164 144
-122 247 13 31 64 81 100 96 36 15 110 11 149 -10z"/>
<path d="M3142 5828 c-133 -50 -190 -210 -118 -333 80 -136 245 -165 360 -63
82 71 102 180 52 283 -54 109 -177 157 -294 113z m156 -126 c71 -46 57 -154
-24 -188 -77 -32 -156 19 -156 101 0 91 99 139 180 87z"/>
<path d="M2816 5140 c-101 -40 -167 -137 -167 -244 0 -158 115 -266 286 -270
36 0 65 -5 66 -11 5 -53 0 -1338 -6 -1381 -9 -75 -40 -174 -75 -244 -16 -30
-110 -181 -211 -335 -224 -344 -307 -472 -429 -662 -51 -82 -122 -191 -156
-243 -200 -309 -403 -629 -416 -655 -21 -41 -39 -121 -42 -186 -7 -126 48
-262 142 -356 57 -56 169 -118 237 -130 22 -4 681 -8 1465 -8 l1425 0 76 28
c278 102 398 420 258 686 -16 31 -63 108 -104 171 -142 216 -310 474 -320 492
-11 19 -113 176 -398 613 -104 160 -205 315 -225 345 -20 30 -53 82 -75 115
-69 104 -116 209 -137 301 -18 84 -20 130 -20 775 l0 685 63 1 c125 1 206 45
260 141 24 43 30 65 30 120 2 109 -49 193 -147 245 -41 22 -42 22 -686 24
-618 2 -647 2 -694 -17z m1325 -93 c88 -17 134 -129 87 -211 -45 -76 -43 -76
-479 -76 -371 0 -387 -1 -404 -20 -22 -24 -23 -67 -1 -88 15 -15 49 -17 269
-19 139 -1 257 -2 262 -2 7 -1 10 -230 11 -668 1 -368 2 -690 4 -718 4 -64 43
-209 72 -272 27 -59 74 -137 185 -307 162 -247 167 -257 152 -267 -23 -14 -91
-10 -149 11 -70 25 -113 25 -192 0 -80 -25 -120 -25 -188 1 -98 37 -200 13
-200 -48 0 -39 32 -61 89 -61 29 -1 77 -10 108 -22 67 -25 125 -24 203 3 67
24 99 23 170 -2 65 -23 159 -23 206 1 18 8 36 13 41 9 5 -3 110 -161 233 -351
123 -190 247 -381 275 -425 278 -425 282 -433 300 -505 42 -170 -18 -325 -160
-415 -28 -18 -75 -38 -105 -44 -41 -9 -405 -11 -1470 -9 l-1415 3 -58 29
c-119 59 -200 188 -200 319 0 112 12 138 225 462 107 164 134 205 328 505 62
96 151 232 197 303 l83 127 37 -16 c96 -40 213 -16 213 44 0 42 -26 59 -97 64
-35 2 -65 7 -68 10 -4 3 50 93 119 199 69 107 149 233 177 282 l51 87 179 0
c166 0 180 1 199 20 24 24 25 57 4 85 -14 18 -28 20 -162 22 -81 1 -152 2
-158 2 -8 1 -7 19 3 62 8 34 15 83 17 108 l3 46 142 5 c126 4 144 7 157 24 20
28 17 62 -6 84 -19 17 -36 19 -151 18 -72 0 -133 3 -136 8 -3 4 -6 55 -7 112
l-1 104 137 0 c125 0 140 2 158 20 26 26 26 64 0 88 -19 17 -36 19 -151 18
-108 -1 -132 2 -138 14 -5 12 -7 131 -2 178 1 9 35 12 136 12 122 0 137 2 155
20 24 24 25 57 4 85 -13 18 -27 20 -149 21 -74 0 -138 4 -142 7 -4 4 -7 55 -8
112 l0 105 137 0 c125 0 140 2 158 20 24 24 25 57 4 85 -13 18 -28 20 -137 22
-67 1 -131 2 -142 2 -20 1 -20 7 -19 122 1 167 2 166 -153 171 -94 3 -124 7
-146 22 -38 26 -60 72 -61 127 -1 70 43 123 115 138 41 8 1205 6 1250 -2z"/>
<path d="M3042 2729 c-48 -18 -47 -100 2 -113 11 -3 97 -6 189 -6 164 0 168 1
192 24 25 25 25 46 -1 81 -14 19 -27 20 -187 21 -95 1 -182 -2 -195 -7z"/>
<path d="M3036 2383 c-13 -7 -26 -18 -29 -26 -9 -24 5 -67 25 -78 11 -6 93
-10 196 -10 176 0 177 0 199 25 24 28 21 55 -8 82 -17 15 -43 18 -190 18 -116
1 -177 -3 -193 -11z"/>
<path d="M3021 2029 c-22 -24 -21 -63 3 -87 13 -13 44 -16 188 -17 95 -1 181
1 191 3 21 5 46 51 39 72 -15 48 -25 50 -218 50 -173 0 -184 -1 -203 -21z"/>
<path d="M3025 1685 c-31 -31 -31 -49 0 -81 25 -25 26 -25 204 -24 154 1 181
4 194 18 27 32 27 51 1 82 l-26 30 -174 0 c-172 0 -175 0 -199 -25z"/>
<path d="M3027 1350 c-27 -22 -29 -64 -6 -89 22 -23 19 -23 244 -22 137 0 140
1 162 25 24 28 21 55 -9 83 -17 16 -41 18 -196 18 -145 0 -179 -2 -195 -15z"/>
<path d="M3066 1019 c-47 -8 -59 -20 -59 -59 0 -61 13 -65 217 -65 183 1 184
1 204 25 16 19 18 30 10 51 -5 16 -16 33 -23 39 -15 12 -286 19 -349 9z"/>
</g>
</svg>
